<svg width="64" height="64" viewBox="0 0 64 64" fill="none" xmlns="http://www.w3.org/2000/svg">
  <circle cx="32" cy="32" r="32" fill="#DE2910"/>
  <mask id="mask0_cn" style="mask-type:alpha" maskUnits="userSpaceOnUse" x="0" y="0" width="64" height="64">
    <circle cx="32" cy="32" r="32" fill="#ffffff"/>
  </mask>
  <g mask="url(#mask0_cn)">
    <rect width="64" height="64" fill="#DE2910"/>
    <path d="M18.5 10L20.6312 16.5595H27.5297L21.9492 20.611L24.0804 27.1705L18.5 23.119L12.9196 27.1705L15.0508 20.611L9.47026 16.5595H16.3688L18.5 10Z" fill="#FFDE00"/>
    <path d="M31.5 12.5L32.3906 15.2406H35.2725L32.941 16.9344L33.8316 19.675L31.5 17.9813L29.1684 19.675L30.059 16.9344L27.7275 15.2406H30.6094L31.5 12.5Z" fill="#FFDE00"/>
    <path d="M37 19L37.8906 21.7406H40.7725L38.441 23.4344L39.3316 26.175L37 24.4813L34.6684 26.175L35.559 23.4344L33.2275 21.7406H36.1094L37 19Z" fill="#FFDE00"/>
    <path d="M36 28L36.8906 30.7406H39.7725L37.441 32.4344L38.3316 35.175L36 33.4813L33.6684 35.175L34.559 32.4344L32.2275 30.7406H35.1094L36 28Z" fill="#FFDE00"/>
    <path d="M29.5 34L30.3906 36.7406H33.2725L30.941 38.4344L31.8316 41.175L29.5 39.4813L27.1684 41.175L28.059 38.4344L25.7275 36.7406H28.6094L29.5 34Z" fill="#FFDE00"/>
  </g>
</svg>
