<svg width="64" height="64" viewBox="0 0 64 64" fill="none" xmlns="http://www.w3.org/2000/svg">
  <circle cx="32" cy="32" r="32" fill="#ffffff"/>
  <mask id="mask0_us" style="mask-type:alpha" maskUnits="userSpaceOnUse" x="0" y="0" width="64" height="64">
    <circle cx="32" cy="32" r="32" fill="#ffffff"/>
  </mask>
  <g mask="url(#mask0_us)">
    <rect width="64" height="64" fill="#ffffff"/>
    <rect y="0" width="64" height="4.92308" fill="#B22234"/>
    <rect y="9.84615" width="64" height="4.92308" fill="#B22234"/>
    <rect y="19.6923" width="64" height="4.92308" fill="#B22234"/>
    <rect y="29.5385" width="64" height="4.92308" fill="#B22234"/>
    <rect y="39.3846" width="64" height="4.92308" fill="#B22234"/>
    <rect y="49.2308" width="64" height="4.92308" fill="#B22234"/>
    <rect y="59.0769" width="64" height="4.92308" fill="#B22234"/>
    <rect width="30" height="34" fill="#3C3B6E"/>
    <g fill="#ffffff">
      <circle cx="5" cy="5.5" r="1.2"/>
      <circle cx="12" cy="5.5" r="1.2"/>
      <circle cx="19" cy="5.5" r="1.2"/>
      <circle cx="26" cy="5.5" r="1.2"/>
      <circle cx="8.5" cy="11.5" r="1.2"/>
      <circle cx="15.5" cy="11.5" r="1.2"/>
      <circle cx="22.5" cy="11.5" r="1.2"/>
      <circle cx="5" cy="17.5" r="1.2"/>
      <circle cx="12" cy="17.5" r="1.2"/>
      <circle cx="19" cy="17.5" r="1.2"/>
      <circle cx="26" cy="17.5" r="1.2"/>
      <circle cx="8.5" cy="23.5" r="1.2"/>
      <circle cx="15.5" cy="23.5" r="1.2"/>
      <circle cx="22.5" cy="23.5" r="1.2"/>
      <circle cx="5" cy="29.5" r="1.2"/>
      <circle cx="12" cy="29.5" r="1.2"/>
      <circle cx="19" cy="29.5" r="1.2"/>
      <circle cx="26" cy="29.5" r="1.2"/>
    </g>
  </g>
</svg>
