<svg preserveAspectRatio="none" width="100%" height="100%" overflow="visible" style="display: block;" viewBox="0 0 388.337 257.389" fill="none" xmlns="http://www.w3.org/2000/svg">
<g id="Group">
<path id="Vector" d="M387.837 166.159C387.837 216.26 301.125 256.889 194.178 256.889C87.2116 256.889 0.5 216.258 0.5 166.159C0.5 165.202 0.534532 164.265 0.605636 163.327C1.1379 154.935 4.11002 146.845 9.20915 139.178C33.7297 109.26 107.269 87.5367 194.176 87.5367C281.064 87.5367 354.605 109.26 379.124 139.178C384.205 146.843 387.197 154.935 387.727 163.327C387.802 164.265 387.837 165.204 387.837 166.159Z" fill="var(--fill-0, #101521)" stroke="var(--stroke-0, #101521)" stroke-miterlimit="10"/>
<path id="Vector_2" d="M387.837 161.025C387.837 161.803 387.802 162.565 387.731 163.327C384.544 202.858 299.09 234.53 194.178 234.53C89.2493 234.53 3.7931 202.858 0.605636 163.327C0.534532 162.565 0.5 161.803 0.5 161.025C0.5 153.413 3.54526 146.083 9.20915 139.178C33.7297 109.26 107.269 87.5367 194.176 87.5367C281.064 87.5367 354.605 109.26 379.124 139.178C384.792 146.083 387.837 153.413 387.837 161.025Z" fill="var(--fill-0, #8CFF69)" stroke="var(--stroke-0, #101521)" stroke-miterlimit="10"/>
<path id="Vector_3" d="M195.059 194.511C271.82 194.511 334.046 174.745 334.046 150.364C334.046 125.982 271.82 106.217 195.059 106.217C118.299 106.217 56.0724 125.982 56.0724 150.364C56.0724 174.745 118.299 194.511 195.059 194.511Z" fill="var(--fill-0, #8CFF69)" stroke="var(--stroke-0, #101521)" stroke-miterlimit="10"/>
<path id="Vector_4" d="M197.865 194.393C252.759 194.393 297.259 180.259 297.259 162.823C297.259 145.388 252.759 131.253 197.865 131.253C142.971 131.253 98.4706 145.388 98.4706 162.823C98.4706 180.259 142.971 194.393 197.865 194.393Z" fill="var(--fill-0, #101521)" stroke="var(--stroke-0, #101521)" stroke-miterlimit="10"/>
<path id="Vector_5" d="M56.0725 150.364C56.0725 150.364 51.7514 0.5 195.059 0.5C287.965 0.5 334.046 69.4277 334.046 150.364" stroke="var(--stroke-0, #101521)" stroke-miterlimit="10" stroke-linecap="round"/>
<path id="Vector_6" d="M212.882 150.364H197.166V194.395H212.882V150.364Z" fill="var(--fill-0, #69F3FF)" stroke="var(--stroke-0, #101521)" stroke-miterlimit="10" stroke-linecap="round"/>
<path id="Vector_7" d="M237.991 67.7374V55.4995C243.972 53.5979 248.167 49.1631 248.167 43.9929C248.167 37.0898 240.689 31.4949 231.462 31.4949C222.235 31.4949 214.757 37.0898 214.757 43.9929C214.757 49.6365 219.758 54.4024 226.625 55.9545V65.3381C218.667 64.0075 210.23 63.2863 201.485 63.2863C189.206 63.2863 177.535 64.7043 166.957 67.2457V57.2567C172.645 55.2638 176.592 50.9549 176.592 45.9452C176.592 39.0421 169.114 33.4472 159.887 33.4472C150.662 33.4472 143.182 39.0421 143.182 45.9452C143.182 51.735 148.45 56.5904 155.588 58.0104V70.5551C131.218 78.9819 115.005 93.9075 115.005 110.93C115.005 137.242 153.721 158.573 201.483 158.573C249.244 158.573 287.961 137.242 287.961 110.93C287.963 91.8049 267.501 75.3211 237.991 67.7374Z" fill="var(--fill-0, #69F3FF)" stroke="var(--stroke-0, #101521)" stroke-miterlimit="10" stroke-linecap="round"/>
<path id="Vector_8" d="M168.27 46.1119C168.27 48.9987 164.223 46.6218 159.538 46.6218C154.851 46.6218 151.3 48.9987 151.3 46.1119C151.3 43.2251 155.099 40.8848 159.784 40.8848C164.471 40.8868 168.27 43.2251 168.27 46.1119Z" fill="var(--fill-0, white)" stroke="var(--stroke-0, #101521)" stroke-miterlimit="10" stroke-linecap="round"/>
<path id="Vector_9" d="M239.935 46.1119C239.935 48.9987 235.889 46.6218 231.204 46.6218C226.517 46.6218 222.966 48.9987 222.966 46.1119C222.966 43.2251 226.765 40.8848 231.45 40.8848C236.136 40.8868 239.935 43.2251 239.935 46.1119Z" fill="var(--fill-0, white)" stroke="var(--stroke-0, #101521)" stroke-miterlimit="10" stroke-linecap="round"/>
<path id="Vector_10" d="M163.503 45.6364C163.503 46.4226 162.866 47.0585 162.081 47.0585C161.295 47.0585 160.657 46.4206 160.657 45.6364C160.657 44.8502 161.295 44.2123 162.081 44.2123C162.866 44.2143 163.503 44.8502 163.503 45.6364Z" fill="var(--fill-0, #101521)"/>
<path id="Vector_11" d="M236.458 45.6364C236.458 46.4226 235.82 47.0585 235.034 47.0585C234.248 47.0585 233.612 46.4206 233.612 45.6364C233.612 44.8502 234.25 44.2123 235.034 44.2123C235.822 44.2143 236.458 44.8502 236.458 45.6364Z" fill="var(--fill-0, #101521)"/>
<path id="Vector_12" d="M252.082 94.8888C252.082 107.234 245.112 139.432 206.799 139.432C168.269 139.432 158.205 107.234 158.205 94.8888C158.205 82.5432 179.219 94.4602 205.144 94.4602C231.068 94.4602 252.082 82.5432 252.082 94.8888Z" fill="var(--fill-0, #101521)"/>
<path id="Vector_13" d="M176.654 91.7642C176.654 91.7642 172.865 99.3397 176.654 100.423C180.441 101.505 181.794 92.847 181.794 92.847L176.654 91.7642Z" fill="var(--fill-0, white)" stroke="var(--stroke-0, #101521)" stroke-miterlimit="10" stroke-linecap="round"/>
<path id="Vector_14" d="M179.278 130.636C179.278 130.636 185.726 125.144 182.663 122.666C179.599 120.187 174.969 127.629 174.969 127.629L179.278 130.636Z" fill="var(--fill-0, white)" stroke="var(--stroke-0, #101521)" stroke-miterlimit="10" stroke-linecap="round"/>
<path id="Vector_15" d="M200.282 137.949C200.282 137.949 203.281 130.028 199.403 129.337C195.525 128.647 195.059 137.397 195.059 137.397L200.282 137.949Z" fill="var(--fill-0, white)" stroke="var(--stroke-0, #101521)" stroke-miterlimit="10" stroke-linecap="round"/>
<path id="Vector_16" d="M224.433 135.716C224.433 135.716 224.385 127.247 220.517 127.995C216.649 128.742 219.359 137.075 219.359 137.075L224.433 135.716Z" fill="var(--fill-0, white)" stroke="var(--stroke-0, #101521)" stroke-miterlimit="10" stroke-linecap="round"/>
<path id="Vector_17" d="M243.771 119.936C243.771 119.936 238.493 113.311 235.917 116.291C233.341 119.271 240.624 124.143 240.624 124.143L243.771 119.936Z" fill="var(--fill-0, white)" stroke="var(--stroke-0, #101521)" stroke-miterlimit="10" stroke-linecap="round"/>
<path id="Vector_18" d="M189.832 94.4053C189.832 94.4053 186.764 102.3 190.637 103.025C194.509 103.75 195.051 95.0046 195.051 95.0046L189.832 94.4053Z" fill="var(--fill-0, white)" stroke="var(--stroke-0, #101521)" stroke-miterlimit="10" stroke-linecap="round"/>
<path id="Vector_19" d="M205.636 95.7096C205.636 95.7096 203.909 104 207.848 104.079C211.787 104.159 210.881 95.4414 210.881 95.4414L205.636 95.7096Z" fill="var(--fill-0, white)" stroke="var(--stroke-0, #101521)" stroke-miterlimit="10" stroke-linecap="round"/>
<path id="Vector_20" d="M224.278 93.6048C224.278 93.6048 223.344 102.021 227.271 101.729C231.2 101.434 229.475 92.843 229.475 92.843L224.278 93.6048Z" fill="var(--fill-0, white)" stroke="var(--stroke-0, #101521)" stroke-miterlimit="10" stroke-linecap="round"/>
</g>
</svg>
