<svg preserveAspectRatio="none" width="100%" height="100%" overflow="visible" style="display: block;" viewBox="0 0 423.549 338.874" fill="none" xmlns="http://www.w3.org/2000/svg">
<g id="Group">
<path id="Vector" d="M423.049 336.668C423.049 336.668 317.627 116.037 309.274 18.5031C306.887 -9.35504 273.477 63.697 273.477 63.697L123.905 65.5649C123.905 65.5649 103.453 17.8725 102.464 2.296C100.82 -23.5112 2.37716 235.703 0.509336 336.664H423.049V336.668Z" fill="var(--fill-0, #8CFF69)" stroke="var(--stroke-0, #101521)" stroke-miterlimit="10"/>
<path id="Vector_2" d="M283.026 141.471C285.918 147.705 273.077 159.807 254.344 168.499C235.612 177.19 218.079 179.184 215.187 172.95C212.296 166.716 225.137 154.614 243.873 145.922C262.598 137.23 280.131 135.237 283.026 141.471Z" fill="var(--fill-0, white)" stroke="var(--stroke-0, #101521)" stroke-miterlimit="10"/>
<path id="Vector_3" d="M92.0572 138.301C89.1656 144.536 102.006 156.637 120.742 165.329C139.475 174.021 157.007 176.014 159.899 169.78C162.791 163.546 149.95 151.447 131.217 142.752C129.004 141.725 126.81 140.793 124.654 139.956C108.546 133.701 94.6097 132.803 92.0572 138.301Z" fill="var(--fill-0, white)" stroke="var(--stroke-0, #101521)" stroke-miterlimit="10"/>
<path id="Vector_4" d="M129.932 157.797L124.651 139.953L139.176 146.838L133.078 158.123C132.353 159.468 130.366 159.262 129.932 157.797Z" fill="var(--fill-0, #101521)"/>
<path id="Vector_5" d="M243.867 145.922C244.87 146.261 248.789 151.759 251.43 155.604C252.318 156.895 254.321 156.404 254.528 154.851L256.365 141.034L243.867 145.922Z" fill="var(--fill-0, #101521)"/>
<path id="Vector_6" d="M89.2966 121.197H119.362" stroke="var(--stroke-0, #101521)" stroke-miterlimit="10" stroke-linecap="round"/>
<path id="Vector_7" d="M263.74 123.762H293.805" stroke="var(--stroke-0, #101521)" stroke-miterlimit="10" stroke-linecap="round"/>
<g id="Vector_8">
<path d="M290.051 66.6906C290.051 66.6906 293.779 57.1175 295.891 51.8564C296.308 50.8191 297.786 50.9039 298.115 51.9717L302.603 66.6906" fill="var(--fill-0, #8CFF69)"/>
<path d="M290.051 66.6906C290.051 66.6906 293.779 57.1175 295.891 51.8564C296.308 50.8191 297.786 50.9039 298.115 51.9717L302.603 66.6906" stroke="var(--stroke-0, #101521)" stroke-miterlimit="10" stroke-linecap="round"/>
</g>
<g id="Vector_9">
<path d="M100.982 67.6971C100.982 67.6971 98.0256 50.9476 95.5612 50.2086C93.0967 49.4696 87.1848 67.6971 87.1848 67.6971" fill="var(--fill-0, #8CFF69)"/>
<path d="M100.982 67.6971C100.982 67.6971 98.0256 50.9476 95.5612 50.2086C93.0967 49.4696 87.1848 67.6971 87.1848 67.6971" stroke="var(--stroke-0, #101521)" stroke-miterlimit="10" stroke-linecap="round"/>
</g>
<g id="Vector_10">
<path d="M290.051 248.334C290.051 248.334 297.478 237.503 304.393 241.354C316.912 248.334 307.986 336.668 307.986 336.668" fill="var(--fill-0, #8CFF69)"/>
<path d="M290.051 248.334C290.051 248.334 297.478 237.503 304.393 241.354C316.912 248.334 307.986 336.668 307.986 336.668" stroke="var(--stroke-0, #101521)" stroke-miterlimit="10" stroke-linecap="round"/>
</g>
<g id="Vector_11">
<path d="M290.049 248.334C290.049 248.334 298.297 205.025 286.9 204.456C275.503 203.886 270.374 243.205 270.374 243.205" fill="var(--fill-0, #8CFF69)"/>
<path d="M290.049 248.334C290.049 248.334 298.297 205.025 286.9 204.456C275.503 203.886 270.374 243.205 270.374 243.205" stroke="var(--stroke-0, #101521)" stroke-miterlimit="10" stroke-linecap="round"/>
</g>
<g id="Vector_12">
<path d="M249.104 336.668C249.104 336.668 249.056 260.036 256.365 243.205C260.88 232.805 267.528 235.225 270.379 243.205" fill="var(--fill-0, #8CFF69)"/>
<path d="M249.104 336.668C249.104 336.668 249.056 260.036 256.365 243.205C260.88 232.805 267.528 235.225 270.379 243.205" stroke="var(--stroke-0, #101521)" stroke-miterlimit="10" stroke-linecap="round"/>
</g>
<path id="Vector_13" d="M169.305 189.713C169.305 189.713 177.675 203.828 184.231 202.933C190.787 202.038 201.495 189.415 199.109 187.926C196.726 186.435 165.329 185.906 169.305 189.713Z" fill="var(--fill-0, #101521)"/>
<path id="Vector_14" d="M15.6515 173.407C17.9838 173.757 44.4249 166.062 48.3131 173.407C52.2013 180.753 71.6423 189.92 75.5305 188.448C79.4187 186.977 92.6393 179.624 98.8597 179.411C105.08 179.197 124.735 194.994 124.735 194.994" stroke="var(--stroke-0, #101521)" stroke-miterlimit="10" stroke-linecap="round"/>
<path id="Vector_15" d="M70.1957 210.883C70.1957 210.883 89.7181 207.744 91.5419 204.449C93.3656 201.154 103.095 200.717 104.918 201.544C106.742 202.371 128.081 210.883 128.081 210.883" stroke="var(--stroke-0, #101521)" stroke-miterlimit="10" stroke-linecap="round"/>
<path id="Vector_16" d="M246.232 194.994C246.232 194.994 281.849 182.333 286.3 182.608C290.751 182.879 310.47 195.923 313.65 188.448C316.83 180.974 327.643 167.753 334.637 173.407C341.633 179.062 349.681 174.729 352.017 170.217C354.352 165.706 381.065 142.797 403.963 159.021" stroke="var(--stroke-0, #101521)" stroke-miterlimit="10" stroke-linecap="round"/>
<path id="Vector_17" d="M236.967 208.438C236.967 208.438 257.232 211.15 259.741 210.886" stroke="var(--stroke-0, #101521)" stroke-miterlimit="10" stroke-linecap="round"/>
<path id="Vector_18" d="M151.39 205.761C150.166 205.916 149.308 207.028 149.488 208.249C150.244 213.296 152.763 224.344 156.834 222.466C160.498 220.774 161.441 211.649 161.681 207.069C161.753 205.696 160.576 204.598 159.214 204.771L151.39 205.761Z" fill="var(--fill-0, white)" stroke="var(--stroke-0, #101521)" stroke-miterlimit="10"/>
<path id="Vector_19" d="M218.099 205.761C219.323 205.916 220.18 207.028 220.001 208.249C219.245 213.296 216.726 224.344 212.655 222.466C208.99 220.774 208.048 211.649 207.807 207.069C207.736 205.696 208.912 204.598 210.275 204.771L218.099 205.761Z" fill="var(--fill-0, white)" stroke="var(--stroke-0, #101521)" stroke-miterlimit="10"/>
<path id="Vector_20" d="M317.281 240.527C307.051 227.09 297.352 241.137 298.101 236.283C301.383 215.018 292.051 205.686 292.051 205.686C294.613 218.452 290.051 248.331 290.051 248.331C290.051 248.331 299.647 230.273 306.759 244.876C313.871 259.48 300.563 336.664 300.563 336.664H321.97C321.97 336.664 327.509 253.965 317.281 240.527Z" fill="var(--fill-0, #101521)"/>
</g>
</svg>
