<svg preserveAspectRatio="none" width="100%" height="100%" overflow="visible" style="display: block;" viewBox="0 0 377.583 377.583" fill="none" xmlns="http://www.w3.org/2000/svg">
<g id="Group 5">
<path id="Vector" d="M340.904 225.47C361.161 141.461 309.48 56.9357 225.47 36.6787C141.46 16.4216 56.9355 68.1034 36.6784 152.113C16.4214 236.123 68.103 320.648 152.113 340.905C236.122 361.162 320.647 309.48 340.904 225.47Z" stroke="var(--stroke-0, #CCFF00)" stroke-width="8" stroke-miterlimit="10"/>
<path id="Vector_2" d="M188.895 345.294C245.636 345.294 291.634 275.236 291.634 188.815C291.634 102.394 245.636 32.3364 188.895 32.3364C132.155 32.3364 86.1571 102.394 86.1571 188.815C86.1571 275.236 132.155 345.294 188.895 345.294Z" stroke="var(--stroke-0, #CCFF00)" stroke-width="8" stroke-miterlimit="10"/>
<path id="Vector_3" d="M188.896 345.294C208.975 345.294 225.251 275.236 225.251 188.815C225.251 102.394 208.975 32.3364 188.896 32.3364C168.817 32.3364 152.541 102.394 152.541 188.815C152.541 275.236 168.817 345.294 188.896 345.294Z" stroke="var(--stroke-0, #CCFF00)" stroke-width="8" stroke-miterlimit="10"/>
<path id="Vector_4" d="M188.895 291.553C275.316 291.553 345.374 245.556 345.374 188.815C345.374 132.074 275.316 86.0769 188.895 86.0769C102.475 86.0769 32.4166 132.074 32.4166 188.815C32.4166 245.556 102.475 291.553 188.895 291.553Z" stroke="var(--stroke-0, #CCFF00)" stroke-width="8" stroke-miterlimit="10"/>
<path id="Vector_5" d="M188.895 225.171C275.316 225.171 345.374 208.894 345.374 188.816C345.374 168.737 275.316 152.46 188.895 152.46C102.475 152.46 32.4166 168.737 32.4166 188.816C32.4166 208.894 102.475 225.171 188.895 225.171Z" stroke="var(--stroke-0, #CCFF00)" stroke-width="8" stroke-miterlimit="10"/>
</g>
</svg>
