<svg preserveAspectRatio="none" width="100%" height="100%" overflow="visible" style="display: block;" viewBox="0 0 132.417 132.417" fill="none" xmlns="http://www.w3.org/2000/svg">
<g id="Group 5">
<path id="Vector" d="M119.554 79.0715C126.658 49.6097 108.533 19.9672 79.0714 12.8631C49.6096 5.75904 19.9671 23.8836 12.863 53.3455C5.75897 82.8073 23.8835 112.45 53.3453 119.554C82.8072 126.658 112.45 108.533 119.554 79.0715Z" stroke="var(--stroke-0, #4EFF23)" stroke-width="3" stroke-miterlimit="10"/>
<path id="Vector_2" d="M66.2449 121.093C86.1436 121.093 102.275 96.5241 102.275 66.2167C102.275 35.9093 86.1436 11.3403 66.2449 11.3403C46.3461 11.3403 30.215 35.9093 30.215 66.2167C30.215 96.5241 46.3461 121.093 66.2449 121.093Z" stroke="var(--stroke-0, #4EFF23)" stroke-width="3" stroke-miterlimit="10"/>
<path id="Vector_3" d="M66.2451 121.093C73.2865 121.093 78.9947 96.5241 78.9947 66.2167C78.9947 35.9093 73.2865 11.3403 66.2451 11.3403C59.2036 11.3403 53.4954 35.9093 53.4954 66.2167C53.4954 96.5241 59.2036 121.093 66.2451 121.093Z" stroke="var(--stroke-0, #4EFF23)" stroke-width="3" stroke-miterlimit="10"/>
<path id="Vector_4" d="M66.2449 102.247C96.5523 102.247 121.121 86.1155 121.121 66.2167C121.121 46.3179 96.5523 30.1869 66.2449 30.1869C35.9375 30.1869 11.3684 46.3179 11.3684 66.2167C11.3684 86.1155 35.9375 102.247 66.2449 102.247Z" stroke="var(--stroke-0, #4EFF23)" stroke-width="3" stroke-miterlimit="10"/>
<path id="Vector_5" d="M66.2449 78.9667C96.5523 78.9667 121.121 73.2584 121.121 66.217C121.121 59.1755 96.5523 53.4673 66.2449 53.4673C35.9375 53.4673 11.3684 59.1755 11.3684 66.217C11.3684 73.2584 35.9375 78.9667 66.2449 78.9667Z" stroke="var(--stroke-0, #4EFF23)" stroke-width="3" stroke-miterlimit="10"/>
</g>
</svg>
