<svg preserveAspectRatio="none" width="100%" height="100%" overflow="visible" style="display: block;" viewBox="0 0 89.7552 38.6871" fill="none" xmlns="http://www.w3.org/2000/svg">
<g id="LEZGO">
<path id="Vector" d="M70.573 9.72546C70.573 6.39409 71.4506 3.94034 73.2058 2.3642C74.9611 0.788067 77.2536 0 80.0835 0C81.5163 0 82.8238 0.197016 84.0059 0.591049C85.188 0.985084 86.2089 1.59405 87.0686 2.41793C87.9283 3.206 88.591 4.20899 89.0567 5.42692C89.5224 6.64484 89.7552 8.07769 89.7552 9.72546V28.9077C89.7552 30.5555 89.5224 32.0063 89.0567 33.26C88.591 34.4779 87.9283 35.4988 87.0686 36.3227C86.2089 37.1108 85.188 37.7018 84.0059 38.0959C82.8238 38.4899 81.5163 38.6869 80.0835 38.6869C77.2536 38.6869 74.9611 37.8989 73.2058 36.3227C71.4506 34.7466 70.573 32.2749 70.573 28.9077V9.72546ZM77.0208 29.3913C77.0208 30.7525 77.3432 31.7197 77.9879 32.2928C78.6327 32.8302 79.3492 33.0988 80.1372 33.0988C80.9611 33.0988 81.6954 32.8302 82.3402 32.2928C82.985 31.7197 83.3074 30.7525 83.3074 29.3913V9.29561C83.3074 7.89858 82.985 6.93141 82.3402 6.39409C81.6954 5.85677 80.9611 5.58811 80.1372 5.58811C79.3492 5.58811 78.6327 5.85677 77.9879 6.39409C77.3432 6.93141 77.0208 7.89858 77.0208 9.29561V29.3913Z" fill="var(--fill-0, white)"/>
<path id="Vector_2" d="M55.612 29.3913C55.612 30.6451 55.8986 31.5764 56.4718 32.1854C57.0449 32.7943 57.7076 33.0988 58.4598 33.0988C59.2837 33.0988 60.0539 32.7048 60.7703 31.9167C61.5225 31.0928 61.8987 29.857 61.8987 28.2092V22.1912H58.5673V17.9464H68.3465V38.1496H63.833V34.066H63.4032C62.9017 35.6063 62.024 36.7705 60.7703 37.5586C59.5524 38.3108 58.2628 38.6869 56.9016 38.6869C55.9703 38.6869 55.0389 38.5078 54.1076 38.1496C53.1762 37.7556 52.3344 37.1645 51.5822 36.3765C50.8657 35.5884 50.2747 34.5854 49.809 33.3675C49.3792 32.1137 49.1642 30.6451 49.1642 28.9615V9.72546C49.1642 6.39409 50.0418 3.94034 51.7971 2.3642C53.5523 0.788067 55.8449 0 58.6748 0C60.1076 0 61.4151 0.197016 62.5972 0.591049C63.7793 0.985084 64.8002 1.59405 65.6599 2.41793C66.5196 3.206 67.1823 4.20899 67.648 5.42692C68.1137 6.64484 68.3465 8.07769 68.3465 9.72546V15.7434H61.8987V9.29561C61.8987 7.89858 61.5763 6.93141 60.9315 6.39409C60.2867 5.85677 59.5703 5.58811 58.7822 5.58811C57.9583 5.58811 57.224 5.85677 56.5792 6.39409C55.9344 6.93141 55.612 7.89858 55.612 9.29561V29.3913Z" fill="var(--fill-0, white)"/>
<path id="Vector_3" d="M47.0821 0.537358V6.1792L36.7656 32.2391L37.088 32.5615H47.6732V38.1497H30.1566V32.5615L40.4194 6.44786L40.1507 6.12547H30.6939V0.537358H47.0821Z" fill="var(--fill-0, white)"/>
<path id="Vector_4" d="M21.5599 6.12547V15.7435H28.4913V21.3316H21.5599V32.5615H28.8674V38.1497H15.1121V0.537358H28.7062V6.12547H21.5599Z" fill="var(--fill-0, white)"/>
<path id="Vector_5" d="M6.44782 0.537358V32.5615H13.5404V38.1497H1.62067e-06V0.537358H6.44782Z" fill="var(--fill-0, white)"/>
</g>
</svg>
